<?xml version="1.0" encoding="utf-8"?>
<!-- Generator: Adobe Illustrator 25.0.0, SVG Export Plug-In . SVG Version: 6.00 Build 0)  -->
<svg version="1.1" id="Layer_1" xmlns="http://www.w3.org/2000/svg" xmlns:xlink="http://www.w3.org/1999/xlink" x="0px" y="0px"
	 viewBox="0 0 56 56" style="enable-background:new 0 0 56 56;" xml:space="preserve">
<path d="M32.3,6.3c2-2,4.3-3,7.1-3c2.8,0,5.1,1,7,3c2,2,2.9,4.4,2.9,7.3c0,2.8-1,5.3-2.9,7.3c-1.9,2-4.3,3-7,3c-2.8,0-5.1-1-7.1-3
	c-2-2-2.9-4.4-2.9-7.3C29.3,10.7,30.3,8.3,32.3,6.3z M37.7,28.1h4.4l0,0.5c-1.5,0.2-3,0.2-4.5,0H25.9v26.2H10.2V0.7h27.1
	c1.7-0.2,3.3-0.2,4.7,0l0,0.5h-4.6c-3.2,0.4-6,1.7-8.4,3.7c-1.5,1.3-2.7,2.8-3.6,4.4c-0.9,1.6-1.3,3.3-1.3,4.9
	c-0.1,1.7,0.3,3.5,1.1,5.2c0.8,1.7,2,3.3,3.5,4.6C31.3,26.3,34.3,27.6,37.7,28.1z"/>
</svg>
